Coordinates
version=1
nRows=49
nColumns=12
inDegrees=yes

Units are S.I. units (second, meters, Newtons, ...)
Angles are in degrees

endheader
time	SC_y	SC_z	SC_x	AC_y	AC_z	AC_x	GH_y	GH_z	GH_yy	EL_x	PS_y
       0.0              -29.64          18.87          67.99          64.41         -11.38          -7.43          126.6          34.65          38.32          10.12           32.3
   0.00562              -29.64          18.87          67.98          64.41         -11.38          -7.43          126.6          34.66           38.3          10.14          32.31
   0.01124              -29.64          18.87          67.97          64.41         -11.38          -7.43          126.6          34.66          38.27          10.15          32.32
   0.01686              -29.64          18.88          67.96          64.41         -11.38          -7.43          126.6          34.67          38.24          10.16          32.33
   0.02248              -29.64          18.88          67.95          64.41         -11.38          -7.43          126.6          34.68          38.21          10.17          32.34
    0.0281              -29.64          18.88          67.94          64.41         -11.38          -7.43          126.6          34.69          38.18          10.19          32.35
   0.03372              -29.64          18.89          67.93          64.41         -11.38          -7.43          126.6           34.7          38.15           10.2          32.37
   0.03934              -29.64          18.89          67.92           64.4         -11.38          -7.43          126.6          34.71          38.11          10.22          32.38
   0.04496              -29.64           18.9          67.91           64.4         -11.38          -7.43          126.6          34.72          38.07          10.23          32.39
   0.05058              -29.64           18.9           67.9           64.4         -11.38          -7.43          126.6          34.73          38.03          10.25          32.41
    0.0562              -29.63          18.91          67.89           64.4         -11.38          -7.43          126.6          34.74          37.99          10.27          32.43
   0.06182              -29.63          18.91          67.87           64.4         -11.38          -7.43          126.6          34.75          37.94          10.29          32.45
   0.06744              -29.63          18.92          67.86           64.4         -11.38          -7.43          126.6          34.77          37.89          10.31          32.46
   0.07306              -29.63          18.92          67.84           64.4         -11.38          -7.43          126.7          34.78          37.83          10.34          32.49
   0.07868              -29.63          18.93          67.82           64.4         -11.38          -7.43          126.7           34.8          37.77          10.37          32.51
    0.0843              -29.63          18.94           67.8           64.4         -11.37          -7.43          126.7          34.82           37.7          10.39          32.53
   0.08992              -29.63          18.94          67.78           64.4         -11.37          -7.43          126.7          34.84          37.63          10.43          32.56
   0.09554              -29.63          18.95          67.76          64.39         -11.37          -7.43          126.7          34.86          37.55          10.46          32.59
    0.1012              -29.63          18.96          67.74          64.39         -11.37          -7.43          126.7          34.88          37.47           10.5          32.62
    0.1068              -29.63          18.97          67.71          64.39         -11.37         -7.431          126.7           34.9          37.37          10.54          32.66
    0.1124              -29.63          18.98          67.68          64.39         -11.37         -7.431          126.7          34.93          37.27          10.58           32.7
     0.118              -29.63           19.0          67.65          64.39         -11.37         -7.431          126.8          34.96          37.16          10.63          32.74
    0.1236              -29.62          19.01          67.61          64.39         -11.37         -7.431          126.8           35.0          37.03          10.68          32.78
    0.1293              -29.62          19.03          67.57          64.38         -11.37         -7.431          126.8          35.03           36.9          10.74          32.84
    0.1349              -29.62          19.04          67.52          64.38         -11.37         -7.431          126.8          35.07          36.74          10.81          32.89
    0.1405              -29.62          19.06          67.47          64.38         -11.37         -7.431          126.8          35.12          36.57          10.89          32.96
    0.1461              -29.62          19.08          67.42          64.37         -11.37         -7.431          126.9          35.17          36.38          10.97          33.03
    0.1517              -29.62          19.11          67.35          64.37         -11.37         -7.432          126.9          35.23          36.16          11.06          33.11
    0.1574              -29.61          19.13          67.28          64.36         -11.36         -7.432          126.9           35.3          35.92          11.17           33.2
     0.163              -29.61          19.16           67.2          64.36         -11.36         -7.432          127.0          35.37          35.64          11.29          33.31
    0.1686              -29.61           19.2          67.11          64.35         -11.36         -7.432          127.0          35.46          35.33          11.43          33.43
    0.1742               -29.6          19.24           67.0          64.35         -11.36         -7.432          127.1          35.55          34.96          11.58          33.56
    0.1798               -29.6          19.29          66.88          64.34         -11.36         -7.433          127.1          35.67          34.54          11.77          33.72
    0.1855              -29.59          19.34          66.74          64.33         -11.35         -7.433          127.2           35.8          34.06          11.98           33.9
    0.1911              -29.59           19.4          66.57          64.32         -11.35         -7.434          127.3          35.95          33.49          12.22          34.11
    0.1967              -29.58          19.48          66.38          64.31         -11.35         -7.434          127.4          36.13          32.82          12.52          34.37
    0.2023              -29.57          19.57          66.14          64.29         -11.34         -7.435          127.5          36.35          32.02          12.86          34.67
     0.208              -29.56          19.67          65.86          64.28         -11.34         -7.436          127.7          36.61          31.06          13.28          35.02
    0.2136              -29.55           19.8          65.53          64.26         -11.33         -7.436          127.8          36.92          29.91          13.78          35.46
    0.2192              -29.53          19.96          65.11          64.23         -11.32         -7.438          128.0           37.3          28.49          14.39          35.99
    0.2248              -29.52          20.15           64.6           64.2         -11.31         -7.439          128.3          37.77          26.75          15.15          36.64
    0.2304              -29.49          20.39          63.97          64.16          -11.3         -7.441          128.6          38.36          24.57           16.1          37.46
    0.2361              -29.46          20.69          63.17          64.11         -11.28         -7.443          129.0           39.1          21.83          17.29          38.49
    0.2417              -29.43          21.08          62.15          64.04         -11.26         -7.446          129.6          40.04          18.35           18.8          39.79
    0.2473              -29.38          21.57          60.84          63.96         -11.24         -7.449          130.2          41.24          13.89          20.73          41.47
    0.2529              -29.32           22.2          59.17          63.86         -11.21         -7.454          131.1          42.78          8.172          23.22          43.61
    0.2585              -29.24          23.01          57.04          63.72         -11.16         -7.459          132.2          44.76         0.8641          26.39          46.36
    0.2642              -29.14          24.03          54.35          63.56         -11.11         -7.466          133.5          47.23         -8.325          30.38           49.8
    0.2698              -29.02          25.26          51.08          63.35         -11.05         -7.475          135.2          50.26         -19.52          35.24          54.01
